<?xml version="1.0" encoding="UTF-8"?> <svg xmlns="http://www.w3.org/2000/svg" viewBox="0 0 59.64 42.41"><defs><style>.cls-1{fill:#fff;}.cls-2{fill:#fb6a19;}</style></defs><title>Asset 8</title><g id="Layer_2" data-name="Layer 2"><g id="Objects"><path class="cls-1" d="M2,35.31a4.24,4.24,0,0,1,2.37.55,1.92,1.92,0,0,1,.83,1.71,1.88,1.88,0,0,1-.34,1.18,2.19,2.19,0,0,1-.95.71c.14.17.28.37.43.59s.31.46.46.7.29.49.43.75.27.52.39.77H3.9l-.38-.68c-.13-.23-.26-.46-.4-.68s-.27-.42-.41-.62-.26-.37-.39-.53H1.55v2.51H0V35.49a7.17,7.17,0,0,1,1.05-.14C1.41,35.32,1.73,35.31,2,35.31Zm.09,1.32H1.8l-.25,0v1.87H2a2.58,2.58,0,0,0,1.25-.22.8.8,0,0,0,.38-.75.78.78,0,0,0-.38-.72A2.44,2.44,0,0,0,2.11,36.63Z"></path><path class="cls-1" d="M6.63,42.27V35.39h4.65v1.3H8.18V38h2.75v1.27H8.18V41h3.33v1.3Z"></path><path class="cls-1" d="M17.27,42.27c-.07-.23-.16-.48-.24-.73l-.27-.76H14.07c-.09.26-.17.51-.26.76s-.17.5-.24.73H12c.26-.74.5-1.42.73-2.05s.46-1.22.69-1.78.44-1.09.65-1.59.44-1,.68-1.46h1.47c.22.47.45,1,.67,1.46s.44,1,.66,1.59.45,1.15.68,1.78.48,1.31.74,2.05ZM15.41,37c0,.1-.09.23-.15.41s-.14.37-.23.59-.18.48-.28.75-.22.55-.33.85h2c-.1-.3-.2-.58-.3-.85s-.19-.53-.28-.75l-.24-.6C15.51,37.18,15.45,37.05,15.41,37Z"></path><path class="cls-1" d="M24.42,40.94v1.33h-4.6V35.39h1.55v5.55Z"></path><path class="cls-1" d="M25.41,42.27V35.39h4.65v1.3H27V38h2.76v1.27H27V41h3.33v1.3Z"></path><path class="cls-1" d="M33.31,41.09a2.79,2.79,0,0,0,.55-.05,1.2,1.2,0,0,0,.34-.15.58.58,0,0,0,.18-.23.82.82,0,0,0,0-.28.68.68,0,0,0-.32-.57A5.44,5.44,0,0,0,33,39.33c-.23-.08-.45-.17-.68-.27a2.27,2.27,0,0,1-.61-.39,1.73,1.73,0,0,1-.6-1.37,2,2,0,0,1,.18-.86,1.81,1.81,0,0,1,.5-.66,2.62,2.62,0,0,1,.8-.41,3.76,3.76,0,0,1,1-.14,4.18,4.18,0,0,1,1.2.15,4.32,4.32,0,0,1,.84.33l-.45,1.22a4.25,4.25,0,0,0-.64-.27,3,3,0,0,0-.85-.11,1.59,1.59,0,0,0-.8.15.53.53,0,0,0-.24.48.52.52,0,0,0,.09.31.82.82,0,0,0,.25.24,2.69,2.69,0,0,0,.38.19l.47.17a8.73,8.73,0,0,1,.93.39,2.4,2.4,0,0,1,.67.46,1.73,1.73,0,0,1,.39.6,2.62,2.62,0,0,1,.13.85,1.79,1.79,0,0,1-.68,1.49,3.23,3.23,0,0,1-2,.53,5.16,5.16,0,0,1-.82,0c-.25,0-.46-.08-.65-.13s-.35-.11-.49-.17L31,41.89l.44-1.24a3.23,3.23,0,0,0,.76.31A3.9,3.9,0,0,0,33.31,41.09Z"></path><path class="cls-1" d="M42.13,35.39v1.32H40.05v5.56H38.5V36.71H36.42V35.39Z"></path><path class="cls-1" d="M46.93,42.27c-.08-.23-.16-.48-.25-.73s-.17-.51-.26-.76H43.73c-.09.26-.18.51-.26.76s-.17.5-.25.73H41.61c.26-.74.51-1.42.74-2.05s.46-1.22.68-1.78l.66-1.59c.22-.5.44-1,.67-1.46h1.47c.23.47.45,1,.67,1.46s.44,1,.67,1.59.45,1.15.68,1.78.48,1.31.74,2.05ZM45.07,37l-.16.41-.22.59c-.09.23-.18.48-.29.75l-.32.85h2c-.1-.3-.21-.58-.31-.85s-.19-.53-.28-.75-.16-.43-.23-.6Z"></path><path class="cls-1" d="M53.77,35.39v1.32H51.69v5.56H50.14V36.71H48.06V35.39Z"></path><path class="cls-1" d="M54.76,42.27V35.39h4.65v1.3h-3.1V38h2.76v1.27H56.31V41h3.33v1.3Z"></path><polygon class="cls-2" points="32.49 2.4 32.49 29.38 30.48 29.38 30.48 1.13 28.71 0 7.2 13.63 7.2 31.39 13.22 31.39 13.23 16.95 22.68 10.98 22.68 8.6 11.22 15.85 11.22 29.38 9.21 29.38 9.21 14.74 24.69 4.96 24.69 31.39 26.7 31.39 26.7 3.69 28.71 2.42 28.71 31.39 34.51 31.39 34.51 6.08 49.98 15.86 49.98 29.38 47.97 29.38 47.97 16.97 36.52 9.73 36.52 12.11 45.96 18.08 45.97 31.39 51.99 31.39 51.99 14.76 32.49 2.4"></polygon></g></g></svg> 